<svg xmlns="http://www.w3.org/2000/svg" width="219" height="56" viewBox="0 0 219 56">
    <g fill="none" fill-rule="nonzero">
        <path fill="#1E3B6B" d="M27.867 11.723C27.096 4.304 22.701.032 14.732 0 5.778 0 0 6.17 0 15.504 0 24.24 5.345 31 14.732 31 23.236 31 28 24.655 28 18.69h-8.794c-.528 2.777-1.703 4.924-4.72 4.924-4.188 0-5.533-4.135-5.533-8.11 0-3.983 1.344-8.129 5.534-8.129 3.706 0 4.52 3.265 4.676 4.35h8.704v-.002zM51 8h-8.06v10.819c0 3.282-1.831 3.944-3.226 3.944-2.363 0-2.64-1.656-2.64-4.025V8H29v14.064C29 26.754 32.469 29 36.259 29c3.216 0 5.377-1.067 6.887-3.116h.075v2.607H51V8H51zM59.787 18.916c0-2.476.644-5.151 3.547-5.151 2.896 0 3.55 2.675 3.55 5.151 0 2.444-.654 5.13-3.55 5.13-2.903 0-3.547-2.686-3.547-5.13zM52 36h8.091v-9h.08c1.222 1.758 3.389 2.798 5.796 2.798 7.113 0 9.033-5.917 9.033-10.795C75 13.807 72.094 8 66.094 8c-3.966 0-5.187 1.482-6.202 2.798h-.091V8.52H52V36zM75 29h8v-8.087c0-4.382 1.698-6.2 4.842-6.2 1.617 0 2.35.235 3.158.518V8.317c-.77-.2-1.54-.317-2.346-.317-2.912 0-4.612 1.353-5.895 3.79h-.077V8.51H75V29zM114 8h-8.064v10.819c0 3.282-1.837 3.944-3.222 3.944-2.356 0-2.649-1.656-2.649-4.025V8H92v14.064C92 26.754 95.467 29 99.252 29c3.224 0 5.375-1.067 6.885-3.116h.083v2.607H114V8zM115 29h8.063V17.908c0-2.134.703-3.66 2.745-3.66 2.443 0 2.647 1.735 2.647 3.66V29h8.08V17.908c0-2.134.7-3.66 2.735-3.66 2.45 0 2.652 1.735 2.652 3.66V29H150V14.948C150 11.64 148.168 8 142.74 8c-5.266 0-6.896 2.967-7.222 3.198-.973-2.05-3.422-3.198-5.71-3.198-2.94 0-5.312.871-6.937 3.242h-.083V8.511h-7.785V29H115z"/>
        <path fill="#F99F2A" d="M150 30h2.944l3.476-9.015h13.12L173.039 30H176L164.693 1h-3.075L150 30zm13.034-26.234l5.581 14.86h-11.344l5.763-14.86zM178 30h2.718V16.184h13.583v-2.357h-13.583V3.349H196V1h-18zM197 30h2.83V17.569h10.344c5.318 0 8.826-3.05 8.826-8.296C219 4.04 215.493 1 210.174 1H197v29zm2.83-26.651h9.721c3.922 0 6.611 1.941 6.611 5.925 0 3.986-2.69 5.933-6.61 5.933h-9.722V3.349z"/>
        <g fill="#1E3B6B">
            <path d="M7.533 49.825c0 1.956-1.59 3.307-3.742 3.307S.063 51.781.063 49.825v-5.101h1.05v5.066c0 1.486 1.142 2.52 2.68 2.52 1.549 0 2.677-1.033 2.677-2.52v-5.066h1.064v5.1h-.001zM9.725 47.008h.82l.128 1.095c.423-.787 1.254-1.24 2.242-1.24 1.384 0 2.37.907 2.37 2.224v3.899h-1.024v-3.75c0-.911-.678-1.55-1.64-1.55-1.076 0-1.884.788-1.884 1.928v3.372H9.725v-5.978zM19.591 49.358c.435 0 .91.048 1.397.17v-.613c0-.762-.615-1.303-1.524-1.303-.667 0-1.346.148-2.063.442l-.282-.713c.871-.32 1.667-.478 2.46-.478 1.409 0 2.382.835 2.382 2.077v2.889c0 .33.206.541.564.541.103 0 .256-.026.333-.037l.077.734c-.205.041-.435.064-.666.064-.678 0-1.115-.382-1.192-.996-.5.626-1.307.996-2.165.996-1.23 0-2.166-.774-2.166-1.795 0-1.254 1.077-1.978 2.845-1.978zm-.435 3.062c1.077 0 1.832-.739 1.832-1.797v-.504a5.917 5.917 0 0 0-1.28-.145c-1.231 0-1.96.49-1.96 1.302-.002.649.601 1.144 1.408 1.144zM29.842 46.863c.756 0 1.498.222 2.204.675l-.423.678c-.538-.36-1.075-.542-1.652-.542-1.307 0-2.216.947-2.216 2.324 0 1.376.91 2.336 2.216 2.336.577 0 1.116-.198 1.652-.553l.423.675c-.706.455-1.448.675-2.204.675-1.832 0-3.139-1.293-3.139-3.135 0-1.832 1.308-3.133 3.14-3.133zM36.033 46.863c1.844 0 3.164 1.29 3.164 3.133 0 1.842-1.32 3.135-3.164 3.135-1.857 0-3.178-1.293-3.178-3.135 0-1.843 1.32-3.133 3.178-3.133zm0 5.48c1.243 0 2.126-.957 2.126-2.347 0-1.375-.884-2.348-2.126-2.348-1.256 0-2.128.973-2.128 2.348 0 1.39.872 2.348 2.128 2.348zM40.774 47.008h.82l.128 1.046c.436-.762 1.204-1.19 2.14-1.19.974 0 1.755.5 2.05 1.3.487-.81 1.294-1.3 2.28-1.3 1.333 0 2.268.882 2.268 2.123v3.999h-1.026v-3.85c0-.848-.628-1.452-1.524-1.452-1.038 0-1.781.762-1.781 1.832v3.468h-1.026v-3.848c0-.848-.626-1.452-1.537-1.452-1.038 0-1.78.762-1.78 1.832v3.468h-1.013v-5.976zM52.37 47.008h.821l.129.996c.436-.738 1.204-1.14 2.138-1.14 1.627 0 2.807 1.3 2.807 3.132 0 1.833-1.178 3.135-2.807 3.135-.896 0-1.627-.395-2.076-1.08v3.49H52.37v-8.533h.002zm2.846.653c-1.09 0-1.845.775-1.845 1.857v.957c0 1.095.755 1.859 1.845 1.859 1.165 0 2.01-.96 2.01-2.336 0-1.367-.845-2.337-2.01-2.337zM62.24 49.358c.434 0 .908.048 1.396.17v-.613c0-.762-.615-1.303-1.526-1.303-.665 0-1.344.148-2.062.442l-.283-.713c.872-.32 1.667-.478 2.46-.478 1.41 0 2.384.835 2.384 2.077v2.889c0 .33.205.541.564.541.103 0 .256-.026.333-.037l.077.734c-.205.041-.435.064-.666.064-.68 0-1.115-.382-1.192-.996-.5.626-1.306.996-2.165.996-1.23 0-2.165-.774-2.165-1.795-.001-1.254 1.076-1.978 2.844-1.978zm-.437 3.062c1.076 0 1.832-.739 1.832-1.797v-.504a5.926 5.926 0 0 0-1.28-.145c-1.231 0-1.962.49-1.962 1.302 0 .649.603 1.144 1.41 1.144zM66.724 47.008h.819l.129 1.095c.424-.787 1.255-1.24 2.243-1.24 1.383 0 2.37.907 2.37 2.224v3.899h-1.024v-3.75c0-.911-.68-1.55-1.64-1.55-1.076 0-1.884.788-1.884 1.928v3.372h-1.013v-5.978zm3.471-1.941c.257 0 .45-.172.54-.455l.652.184c-.127.576-.55.973-1.115.973-.59 0-1.166-.457-1.564-.457-.256 0-.449.16-.539.457l-.652-.198c.128-.576.55-.959 1.114-.959.591 0 1.167.455 1.564.455zM74.297 46.21l-.397-.554 2.178-1.45.462.639-2.243 1.365zm-.103.798h1.013v5.976h-1.013v-5.976zM79.627 49.358c.437 0 .91.048 1.397.17v-.613c0-.762-.615-1.303-1.524-1.303-.667 0-1.346.148-2.062.442l-.283-.713c.872-.32 1.666-.478 2.46-.478 1.41 0 2.384.835 2.384 2.077v2.889c0 .33.205.541.564.541.102 0 .256-.026.332-.037l.078.734c-.207.041-.437.064-.667.064-.679 0-1.115-.382-1.192-.996-.499.626-1.306.996-2.164.996-1.231 0-2.165-.774-2.165-1.795-.001-1.254 1.074-1.978 2.842-1.978zm-.436 3.062c1.075 0 1.832-.739 1.832-1.797v-.504a5.92 5.92 0 0 0-1.282-.145c-1.23 0-1.96.49-1.96 1.302 0 .649.603 1.144 1.41 1.144zM87.457 44.724H90.7c1.68 0 2.884 1.068 2.884 2.592 0 1.514-1.204 2.582-2.884 2.582h-2.216v3.086h-1.026v-8.26zm1.026 4.375h2.062c1.166 0 2-.738 2-1.783 0-1.042-.834-1.793-2-1.793h-2.062v3.576zM95.134 47.008h.819l.129 1.132c.307-.762 1.038-1.23 1.934-1.23.232 0 .513.036.782.098l-.115.8a3.901 3.901 0 0 0-.743-.083c-1.064 0-1.793.82-1.793 2.027v3.232h-1.013v-5.976zM100.552 44.538c.398 0 .68.27.68.651 0 .38-.282.653-.68.653-.41 0-.691-.272-.691-.653 0-.38.283-.651.691-.651zm-.511 2.47h1.013v5.976h-1.013v-5.976zM103.077 47.008h.82l.13 1.095c.422-.787 1.255-1.24 2.24-1.24 1.385 0 2.372.907 2.372 2.224v3.899h-1.026v-3.75c0-.911-.679-1.55-1.64-1.55-1.076 0-1.883.788-1.883 1.928v3.372h-1.013v-5.978zM113.24 46.863c.755 0 1.5.222 2.203.675l-.422.678c-.54-.36-1.076-.542-1.652-.542-1.307 0-2.215.947-2.215 2.324 0 1.376.909 2.336 2.215 2.336.576 0 1.114-.198 1.652-.553l.422.675c-.702.455-1.447.675-2.203.675-1.832 0-3.14-1.293-3.14-3.135 0-1.832 1.308-3.133 3.14-3.133zM117.367 44.538c.394 0 .678.27.678.651 0 .38-.284.653-.678.653-.41 0-.693-.272-.693-.653 0-.38.283-.651.693-.651zm-.512 2.47h1.01v5.976h-1.01v-5.976zM119.89 47.008h.818l.13.996c.437-.738 1.206-1.14 2.14-1.14 1.629 0 2.807 1.3 2.807 3.132 0 1.833-1.178 3.135-2.807 3.135-.898 0-1.628-.395-2.076-1.08v3.49h-1.011v-8.533zm2.844.653c-1.089 0-1.844.775-1.844 1.857v.957c0 1.095.755 1.859 1.844 1.859 1.167 0 2.013-.96 2.013-2.336 0-1.367-.847-2.337-2.013-2.337zM129.758 49.358c.435 0 .91.048 1.395.17v-.613c0-.762-.615-1.303-1.524-1.303-.665 0-1.346.148-2.064.442l-.28-.713c.87-.32 1.665-.478 2.459-.478 1.41 0 2.384.835 2.384 2.077v2.889c0 .33.205.541.564.541.101 0 .255-.026.332-.037l.078.734a3.48 3.48 0 0 1-.665.064c-.68 0-1.116-.382-1.194-.996-.497.626-1.305.996-2.164.996-1.228 0-2.165-.774-2.165-1.795-.001-1.254 1.075-1.978 2.844-1.978zm-.437 3.062c1.076 0 1.832-.739 1.832-1.797v-.504a5.926 5.926 0 0 0-1.28-.145c-1.23 0-1.96.49-1.96 1.302-.001.649.602 1.144 1.408 1.144zM135.102 51.606c0 .445.293.727.755.727.179 0 .396-.036.614-.085l.128.772a4.58 4.58 0 0 1-.96.112c-.961 0-1.552-.553-1.552-1.438V44.33h1.015v7.277z"/>
        </g>
    </g>
</svg>
